# xmcd
#
# Track frame offsets:
#	150
#	18218
#	36848
#	56421
#	78681
#	100871
#	118153
#	133455
#	153816
#	172838
#	188379
#	210795
#	228574
#	254933
#
# Disc length: 3568 seconds
#
# Revision: 0
# Processed by: cddbd v1.4PL0 Copyright (c) Steve Scherf et al.
# Submitted via: dBpowerAMP V4.0
#
DISCID=b40dee0e
DTITLE=Albert King - The Guitar Palyer
DYEAR=2001
DGENRE=Blues
TTITLE0=I´m Ready
TTITLE1=Cold Women With Warm Hearts
TTITLE2=Cadillac Assembly
TTITLE3=Nobody Wants a Loser
TTITLE4=Ain't Nothinh You Can Do
TTITLE5=My Babe
TTITLE6=Rub My Back
TTITLE7=(Aint It) A Real Good Sign
TTITLE8=You Upset Me Babe
TTITLE9=Born Under a Bad Sign
TTITLE10=The Feeling
TTITLE11=I Get Evil
TTITLE12=Agel Of Mercy
TTITLE13=Flat Tyre
EXTD=
EXTT0=
EXTT1=
EXTT2=
EXTT3=
EXTT4=
EXTT5=
EXTT6=
EXTT7=
EXTT8=
EXTT9=
EXTT10=
EXTT11=
EXTT12=
EXTT13=
PLAYORDER=
